STARTFONT 2.1
FONT -Fondu-Palatino-Medium-R-Normal--18-170-75-75-P-100-MacRoman-1
SIZE 17 75 75
FONTBOUNDINGBOX 24 20 -3 -5
COMMENT Created by Fondu from a mac NFNT/FONT resource
STARTPROPERTIES 17
FOUNDRY "Fondu"
FAMILY_NAME "Palatino"
WEIGHT_NAME "Medium"
SLANT "R"
SETWIDTH_NAME "Normal"
ADD_STYLE_NAME ""
PIXEL_SIZE 18
POINT_SIZE 170
RESOLUTION_X 75
RESOLUTION_Y 75
SPACING "P"
AVERAGE_WIDTH 100
CHARSET_REGISTRY "MacRoman"
CHARSET_ENCODING "1"
FONT_ASCENT 15
FONT_DESCENT 5
FACE_NAME "Palatino"
ENDPROPERTIES
CHARS 223
STARTCHAR space
ENCODING 32
SWIDTH 250 0
DWIDTH 4 0
BBX 1 0 0 -5
BITMAP
ENDCHAR
STARTCHAR exclam
ENCODING 33
SWIDTH 278 0
DWIDTH 4 0
BBX 2 14 1 0
BITMAP
C0
C0
C0
C0
C0
C0
C0
C0
C0
C0
00
00
C0
C0
ENDCHAR
STARTCHAR quotedbl
ENCODING 34
SWIDTH 371 0
DWIDTH 7 0
BBX 4 5 1 9
BITMAP
90
90
90
90
90
ENDCHAR
STARTCHAR numbersign
ENCODING 35
SWIDTH 606 0
DWIDTH 11 0
BBX 10 12 0 1
BITMAP
0900
0900
0900
0900
7FC0
1200
1200
1200
FF80
2400
2400
2400
ENDCHAR
STARTCHAR dollar
ENCODING 36
SWIDTH 500 0
DWIDTH 9 0
BBX 8 17 0 -2
BITMAP
08
3E
6B
C9
C8
C8
E8
7C
3E
0F
0B
0B
8B
CE
7C
08
08
ENDCHAR
STARTCHAR percent
ENCODING 37
SWIDTH 840 0
DWIDTH 14 0
BBX 13 14 0 0
BITMAP
18C0
6740
6480
C480
C500
C900
CA30
72C8
04C8
0588
0988
0990
1190
10E0
ENDCHAR
STARTCHAR ampersand
ENCODING 38
SWIDTH 778 0
DWIDTH 14 0
BBX 13 14 0 0
BITMAP
0E00
1B00
3100
3300
1600
1C00
38F8
6C60
C420
C620
C340
C1C0
61D8
3E70
ENDCHAR
STARTCHAR quotesingle
ENCODING 39
SWIDTH 208 0
DWIDTH 4 0
BBX 1 5 1 9
BITMAP
80
80
80
80
80
ENDCHAR
STARTCHAR parenleft
ENCODING 40
SWIDTH 333 0
DWIDTH 6 0
BBX 5 16 0 -2
BITMAP
08
30
60
60
C0
C0
C0
C0
C0
C0
C0
C0
60
60
30
08
ENDCHAR
STARTCHAR parenright
ENCODING 41
SWIDTH 333 0
DWIDTH 6 0
BBX 5 16 0 -2
BITMAP
80
60
30
30
18
18
18
18
18
18
18
18
30
30
60
80
ENDCHAR
STARTCHAR asterisk
ENCODING 42
SWIDTH 389 0
DWIDTH 8 0
BBX 7 8 0 6
BITMAP
18
18
D0
FE
36
D0
D8
18
ENDCHAR
STARTCHAR plus
ENCODING 43
SWIDTH 606 0
DWIDTH 10 0
BBX 9 9 0 1
BITMAP
0800
0800
0800
0800
FF80
0800
0800
0800
0800
ENDCHAR
STARTCHAR comma
ENCODING 44
SWIDTH 250 0
DWIDTH 4 0
BBX 4 5 -1 -3
BITMAP
30
30
60
40
80
ENDCHAR
STARTCHAR hyphen
ENCODING 45
SWIDTH 333 0
DWIDTH 6 0
BBX 5 1 0 5
BITMAP
F8
ENDCHAR
STARTCHAR period
ENCODING 46
SWIDTH 250 0
DWIDTH 4 0
BBX 2 2 1 0
BITMAP
C0
C0
ENDCHAR
STARTCHAR slash
ENCODING 47
SWIDTH 606 0
DWIDTH 9 0
BBX 8 17 0 -3
BITMAP
01
01
03
02
06
04
0C
08
18
10
30
20
60
40
C0
80
80
ENDCHAR
STARTCHAR zero
ENCODING 48
SWIDTH 500 0
DWIDTH 9 0
BBX 8 14 0 0
BITMAP
3C
66
C3
C3
C3
C3
C3
C3
C3
C3
C3
C3
66
3C
ENDCHAR
STARTCHAR one
ENCODING 49
SWIDTH 500 0
DWIDTH 9 0
BBX 6 14 1 0
BITMAP
30
70
B0
30
30
30
30
30
30
30
30
30
30
FC
ENDCHAR
STARTCHAR two
ENCODING 50
SWIDTH 500 0
DWIDTH 9 0
BBX 8 14 0 0
BITMAP
1C
3E
47
03
03
03
02
06
0C
18
30
60
FF
FF
ENDCHAR
STARTCHAR three
ENCODING 51
SWIDTH 500 0
DWIDTH 9 0
BBX 8 14 0 0
BITMAP
3C
7E
86
06
04
08
3E
07
03
03
03
82
C6
7C
ENDCHAR
STARTCHAR four
ENCODING 52
SWIDTH 500 0
DWIDTH 9 0
BBX 8 14 0 0
BITMAP
0E
0E
16
16
26
26
46
46
86
FF
FF
06
06
1F
ENDCHAR
STARTCHAR five
ENCODING 53
SWIDTH 500 0
DWIDTH 9 0
BBX 8 14 0 0
BITMAP
7E
7E
40
40
40
5C
7E
47
03
03
03
83
C6
7C
ENDCHAR
STARTCHAR six
ENCODING 54
SWIDTH 500 0
DWIDTH 9 0
BBX 8 14 0 0
BITMAP
0C
18
30
60
60
CC
DE
E7
C3
C3
C3
C3
66
3C
ENDCHAR
STARTCHAR seven
ENCODING 55
SWIDTH 500 0
DWIDTH 9 0
BBX 8 14 1 0
BITMAP
FF
FF
82
86
04
0C
08
18
10
30
30
60
60
60
ENDCHAR
STARTCHAR eight
ENCODING 56
SWIDTH 500 0
DWIDTH 9 0
BBX 8 14 0 0
BITMAP
3C
66
42
42
62
74
3C
6E
C7
C3
C3
C3
66
3C
ENDCHAR
STARTCHAR nine
ENCODING 57
SWIDTH 500 0
DWIDTH 9 0
BBX 8 14 0 0
BITMAP
3C
66
C3
C3
C3
C3
E7
7B
33
06
06
0C
18
30
ENDCHAR
STARTCHAR colon
ENCODING 58
SWIDTH 250 0
DWIDTH 4 0
BBX 2 8 1 0
BITMAP
C0
C0
00
00
00
00
C0
C0
ENDCHAR
STARTCHAR semicolon
ENCODING 59
SWIDTH 250 0
DWIDTH 4 0
BBX 4 11 -1 -3
BITMAP
30
30
00
00
00
00
30
30
60
40
80
ENDCHAR
STARTCHAR less
ENCODING 60
SWIDTH 606 0
DWIDTH 10 0
BBX 9 9 0 1
BITMAP
0180
0700
1C00
7000
C000
7000
1C00
0700
0180
ENDCHAR
STARTCHAR equal
ENCODING 61
SWIDTH 606 0
DWIDTH 11 0
BBX 10 4 0 4
BITMAP
FFC0
0000
0000
FFC0
ENDCHAR
STARTCHAR greater
ENCODING 62
SWIDTH 606 0
DWIDTH 10 0
BBX 9 9 0 1
BITMAP
C000
7000
1C00
0700
0180
0700
1C00
7000
C000
ENDCHAR
STARTCHAR question
ENCODING 63
SWIDTH 444 0
DWIDTH 9 0
BBX 7 14 1 0
BITMAP
38
FC
8E
06
06
06
0C
18
30
60
20
00
60
60
ENDCHAR
STARTCHAR at
ENCODING 64
SWIDTH 747 0
DWIDTH 14 0
BBX 13 14 0 0
BITMAP
07C0
1870
2018
4308
4CC8
8CC8
98C8
9990
9990
9BA0
4CC0
4010
3060
1FC0
ENDCHAR
STARTCHAR A
ENCODING 65
SWIDTH 778 0
DWIDTH 13 0
BBX 14 14 -1 0
BITMAP
0200
0300
0300
0580
0580
08C0
08C0
1060
1FE0
2030
2030
4018
4018
E03C
ENDCHAR
STARTCHAR B
ENCODING 66
SWIDTH 611 0
DWIDTH 13 0
BBX 10 14 1 0
BITMAP
FF00
6380
6180
6180
6180
6300
7E00
6180
60C0
60C0
60C0
60C0
6180
FF00
ENDCHAR
STARTCHAR C
ENCODING 67
SWIDTH 709 0
DWIDTH 13 0
BBX 12 14 0 0
BITMAP
0FE0
3030
6010
4010
C000
C000
C000
C000
C000
E000
6000
7000
3830
0FC0
ENDCHAR
STARTCHAR D
ENCODING 68
SWIDTH 774 0
DWIDTH 16 0
BBX 13 14 1 0
BITMAP
FFC0
60F0
6030
6038
6018
6018
6018
6018
6018
6018
6010
6030
6060
FF80
ENDCHAR
STARTCHAR E
ENCODING 69
SWIDTH 611 0
DWIDTH 11 0
BBX 9 14 1 0
BITMAP
FF80
6080
6080
6000
6100
6100
7F00
6100
6100
6000
6000
6080
6080
FF80
ENDCHAR
STARTCHAR F
ENCODING 70
SWIDTH 556 0
DWIDTH 11 0
BBX 9 14 1 0
BITMAP
FF80
6080
6080
6000
6000
6100
6100
7F00
6100
6100
6000
6000
6000
F800
ENDCHAR
STARTCHAR G
ENCODING 71
SWIDTH 763 0
DWIDTH 14 0
BBX 13 14 0 0
BITMAP
0FE0
3030
6010
4010
C000
C000
C000
C000
C0F8
E030
6030
7030
3870
0F80
ENDCHAR
STARTCHAR H
ENCODING 72
SWIDTH 832 0
DWIDTH 16 0
BBX 13 14 1 0
BITMAP
F078
6030
6030
6030
6030
6030
7FF0
6030
6030
6030
6030
6030
6030
F078
ENDCHAR
STARTCHAR I
ENCODING 73
SWIDTH 337 0
DWIDTH 7 0
BBX 4 14 1 0
BITMAP
F0
60
60
60
60
60
60
60
60
60
60
60
60
F0
ENDCHAR
STARTCHAR J
ENCODING 74
SWIDTH 333 0
DWIDTH 7 0
BBX 6 18 -1 -4
BITMAP
3C
18
18
18
18
18
18
18
18
18
18
18
18
18
18
10
E0
C0
ENDCHAR
STARTCHAR K
ENCODING 75
SWIDTH 726 0
DWIDTH 14 0
BBX 12 14 1 0
BITMAP
F060
60C0
6180
6300
6600
6C00
7800
7C00
6E00
6700
6380
61C0
60E0
F070
ENDCHAR
STARTCHAR L
ENCODING 76
SWIDTH 611 0
DWIDTH 11 0
BBX 9 14 1 0
BITMAP
F000
6000
6000
6000
6000
6000
6000
6000
6000
6000
6000
6080
6080
FF80
ENDCHAR
STARTCHAR M
ENCODING 77
SWIDTH 946 0
DWIDTH 19 0
BBX 16 14 1 0
BITMAP
E007
6006
700E
700E
5816
5816
4C26
4C26
4646
4646
4386
4386
4106
E10F
ENDCHAR
STARTCHAR N
ENCODING 78
SWIDTH 831 0
DWIDTH 16 0
BBX 13 14 1 0
BITMAP
E038
6010
7010
7810
5C10
4C10
4610
4710
4390
4190
40D0
40F0
4070
E030
ENDCHAR
STARTCHAR O
ENCODING 79
SWIDTH 786 0
DWIDTH 15 0
BBX 14 14 0 0
BITMAP
0FC0
3070
6038
4018
C01C
C00C
C00C
C00C
C00C
E00C
6008
7018
3830
0FC0
ENDCHAR
STARTCHAR P
ENCODING 80
SWIDTH 604 0
DWIDTH 11 0
BBX 9 14 1 0
BITMAP
FF00
6380
6180
6180
6180
6180
6300
6C00
6000
6000
6000
6000
6000
F000
ENDCHAR
STARTCHAR Q
ENCODING 81
SWIDTH 786 0
DWIDTH 15 0
BBX 14 18 0 -4
BITMAP
0FC0
3070
6038
4018
C01C
C00C
C00C
C00C
C00C
E00C
6008
7018
3830
0FC0
0E00
1FC4
21F8
0030
ENDCHAR
STARTCHAR R
ENCODING 82
SWIDTH 668 0
DWIDTH 13 0
BBX 11 14 1 0
BITMAP
FF00
6380
6180
6180
6180
6300
6E00
6600
6300
6300
6180
6180
60C0
F0E0
ENDCHAR
STARTCHAR S
ENCODING 83
SWIDTH 525 0
DWIDTH 10 0
BBX 9 14 0 0
BITMAP
3F00
6180
C080
C080
C000
E000
7C00
1F00
0380
0180
8180
8180
C300
7E00
ENDCHAR
STARTCHAR T
ENCODING 84
SWIDTH 613 0
DWIDTH 11 0
BBX 10 14 0 0
BITMAP
FFC0
8C40
8C40
0C00
0C00
0C00
0C00
0C00
0C00
0C00
0C00
0C00
0C00
3F00
ENDCHAR
STARTCHAR U
ENCODING 85
SWIDTH 778 0
DWIDTH 15 0
BBX 12 14 1 0
BITMAP
F070
6020
6020
6020
6020
6020
6020
6020
6020
6020
6020
7020
3840
1F80
ENDCHAR
STARTCHAR V
ENCODING 86
SWIDTH 722 0
DWIDTH 13 0
BBX 12 14 0 0
BITMAP
F070
6020
6020
3040
3040
3040
1880
1880
1880
0D00
0D00
0D00
0600
0600
ENDCHAR
STARTCHAR W
ENCODING 87
SWIDTH 1000 0
DWIDTH 22 0
BBX 21 14 0 0
BITMAP
F03038
603010
603010
305820
305820
305820
188C40
188C40
188C40
0D0680
0D0680
0F0780
060300
060300
ENDCHAR
STARTCHAR X
ENCODING 88
SWIDTH 667 0
DWIDTH 12 0
BBX 11 14 0 0
BITMAP
E060
6040
3080
3080
1900
1900
0E00
0E00
1300
1300
2180
2180
40C0
C0E0
ENDCHAR
STARTCHAR Y
ENCODING 89
SWIDTH 667 0
DWIDTH 11 0
BBX 12 14 -1 0
BITMAP
E070
6060
3040
3080
1880
1900
0D00
0E00
0600
0600
0600
0600
0600
1F80
ENDCHAR
STARTCHAR Z
ENCODING 90
SWIDTH 667 0
DWIDTH 12 0
BBX 11 14 0 0
BITMAP
FFE0
80E0
81C0
0180
0300
0700
0600
0C00
1C00
1800
3000
7020
E020
FFE0
ENDCHAR
STARTCHAR bracketleft
ENCODING 91
SWIDTH 333 0
DWIDTH 5 0
BBX 4 16 0 -2
BITMAP
F0
C0
C0
C0
C0
C0
C0
C0
C0
C0
C0
C0
C0
C0
C0
F0
ENDCHAR
STARTCHAR backslash
ENCODING 92
SWIDTH 606 0
DWIDTH 8 0
BBX 7 15 0 -1
BITMAP
80
80
C0
40
60
20
30
10
18
08
0C
04
06
02
02
ENDCHAR
STARTCHAR bracketright
ENCODING 93
SWIDTH 333 0
DWIDTH 5 0
BBX 4 16 0 -2
BITMAP
F0
30
30
30
30
30
30
30
30
30
30
30
30
30
30
F0
ENDCHAR
STARTCHAR asciicircum
ENCODING 94
SWIDTH 606 0
DWIDTH 10 0
BBX 9 9 0 5
BITMAP
0800
1C00
1400
3600
2200
6300
4100
C180
8080
ENDCHAR
STARTCHAR underscore
ENCODING 95
SWIDTH 500 0
DWIDTH 11 0
BBX 11 1 0 -3
BITMAP
FFE0
ENDCHAR
STARTCHAR grave
ENCODING 96
SWIDTH 333 0
DWIDTH 6 0
BBX 4 3 1 10
BITMAP
C0
60
30
ENDCHAR
STARTCHAR a
ENCODING 97
SWIDTH 500 0
DWIDTH 10 0
BBX 9 9 0 0
BITMAP
7E00
4700
0300
0F00
7300
C300
C300
E700
7B80
ENDCHAR
STARTCHAR b
ENCODING 98
SWIDTH 553 0
DWIDTH 11 0
BBX 10 14 0 0
BITMAP
E000
6000
6000
6000
6000
6F80
71C0
60C0
60C0
60C0
60C0
6080
6300
7E00
ENDCHAR
STARTCHAR c
ENCODING 99
SWIDTH 444 0
DWIDTH 9 0
BBX 8 9 0 0
BITMAP
3E
63
40
C0
C0
C0
E0
71
3E
ENDCHAR
STARTCHAR d
ENCODING 100
SWIDTH 611 0
DWIDTH 11 0
BBX 10 14 0 0
BITMAP
0380
0180
0180
0180
0180
3F80
6380
C180
C180
C180
C180
C180
6380
3DC0
ENDCHAR
STARTCHAR e
ENCODING 101
SWIDTH 479 0
DWIDTH 10 0
BBX 9 9 0 0
BITMAP
3E00
6300
4180
C180
FF80
C000
E000
7080
3F00
ENDCHAR
STARTCHAR f
ENCODING 102
SWIDTH 333 0
DWIDTH 6 0
BBX 6 14 0 0
BITMAP
1C
24
60
60
60
60
F8
60
60
60
60
60
60
F0
ENDCHAR
STARTCHAR g
ENCODING 103
SWIDTH 556 0
DWIDTH 10 0
BBX 10 14 0 -5
BITMAP
3E00
67C0
C300
C300
6600
3C00
6000
7F00
3F80
4180
C080
C180
6300
3E00
ENDCHAR
STARTCHAR h
ENCODING 104
SWIDTH 582 0
DWIDTH 11 0
BBX 10 14 0 0
BITMAP
E000
6000
6000
6000
6000
6700
6B80
7180
6180
6180
6180
6180
6180
F1C0
ENDCHAR
STARTCHAR i
ENCODING 105
SWIDTH 291 0
DWIDTH 5 0
BBX 4 13 0 0
BITMAP
60
60
00
00
E0
60
60
60
60
60
60
60
F0
ENDCHAR
STARTCHAR j
ENCODING 106
SWIDTH 234 0
DWIDTH 5 0
BBX 4 18 -1 -5
BITMAP
30
30
00
00
70
30
30
30
30
30
30
30
30
30
30
30
20
C0
ENDCHAR
STARTCHAR k
ENCODING 107
SWIDTH 556 0
DWIDTH 10 0
BBX 10 14 0 0
BITMAP
E000
6000
6000
6000
6000
6300
6600
6C00
7800
7C00
6E00
6700
6380
F1C0
ENDCHAR
STARTCHAR l
ENCODING 108
SWIDTH 291 0
DWIDTH 5 0
BBX 4 14 0 0
BITMAP
E0
60
60
60
60
60
60
60
60
60
60
60
60
F0
ENDCHAR
STARTCHAR m
ENCODING 109
SWIDTH 883 0
DWIDTH 17 0
BBX 16 9 0 0
BITMAP
E71C
6BAE
71C6
6186
6186
6186
6186
6186
F1C7
ENDCHAR
STARTCHAR n
ENCODING 110
SWIDTH 582 0
DWIDTH 11 0
BBX 10 9 0 0
BITMAP
E700
6B80
7180
6180
6180
6180
6180
6180
F1C0
ENDCHAR
STARTCHAR o
ENCODING 111
SWIDTH 546 0
DWIDTH 10 0
BBX 9 9 0 0
BITMAP
1E00
6300
4180
C180
C180
C180
C100
6300
3C00
ENDCHAR
STARTCHAR p
ENCODING 112
SWIDTH 601 0
DWIDTH 11 0
BBX 10 14 0 -5
BITMAP
EF80
71C0
60C0
60C0
60C0
60C0
6080
6300
7E00
6000
6000
6000
6000
F000
ENDCHAR
STARTCHAR q
ENCODING 113
SWIDTH 560 0
DWIDTH 10 0
BBX 10 14 0 -5
BITMAP
3E80
6380
C180
C180
C180
C180
C180
6380
3D80
0180
0180
0180
0180
03C0
ENDCHAR
STARTCHAR r
ENCODING 114
SWIDTH 395 0
DWIDTH 7 0
BBX 7 9 0 0
BITMAP
E6
6E
70
60
60
60
60
60
F0
ENDCHAR
STARTCHAR s
ENCODING 115
SWIDTH 424 0
DWIDTH 8 0
BBX 7 9 0 0
BITMAP
3C
C6
C0
E0
7C
0E
06
C6
78
ENDCHAR
STARTCHAR t
ENCODING 116
SWIDTH 326 0
DWIDTH 6 0
BBX 5 12 0 0
BITMAP
20
60
60
F8
60
60
60
60
60
60
60
38
ENDCHAR
STARTCHAR u
ENCODING 117
SWIDTH 603 0
DWIDTH 11 0
BBX 10 9 0 0
BITMAP
E380
6180
6180
6180
6180
6180
6380
7580
39C0
ENDCHAR
STARTCHAR v
ENCODING 118
SWIDTH 565 0
DWIDTH 9 0
BBX 10 9 -1 0
BITMAP
F1C0
6080
6080
3100
3100
1A00
1A00
0C00
0C00
ENDCHAR
STARTCHAR w
ENCODING 119
SWIDTH 834 0
DWIDTH 12 0
BBX 13 9 -1 0
BITMAP
F338
6310
6310
35A0
35A0
35A0
18C0
18C0
18C0
ENDCHAR
STARTCHAR x
ENCODING 120
SWIDTH 516 0
DWIDTH 9 0
BBX 10 9 -1 0
BITMAP
E180
7100
3A00
1C00
0C00
1E00
2700
4380
E1C0
ENDCHAR
STARTCHAR y
ENCODING 121
SWIDTH 556 0
DWIDTH 9 0
BBX 10 14 -1 -5
BITMAP
F1C0
6080
6080
3100
3100
1A00
1A00
0C00
0C00
0800
0800
1000
E000
C000
ENDCHAR
STARTCHAR z
ENCODING 122
SWIDTH 500 0
DWIDTH 8 0
BBX 7 9 0 0
BITMAP
FE
86
0E
1C
38
70
E0
C2
FE
ENDCHAR
STARTCHAR braceleft
ENCODING 123
SWIDTH 333 0
DWIDTH 5 0
BBX 4 16 0 -2
BITMAP
10
20
60
60
60
60
40
80
40
60
60
60
60
60
20
10
ENDCHAR
STARTCHAR bar
ENCODING 124
SWIDTH 606 0
DWIDTH 10 0
BBX 1 14 4 0
BITMAP
80
80
80
80
80
80
80
80
80
80
80
80
80
80
ENDCHAR
STARTCHAR braceright
ENCODING 125
SWIDTH 333 0
DWIDTH 5 0
BBX 4 16 0 -2
BITMAP
80
40
60
60
60
60
20
10
20
60
60
60
60
60
40
80
ENDCHAR
STARTCHAR asciitilde
ENCODING 126
SWIDTH 606 0
DWIDTH 10 0
BBX 9 2 0 5
BITMAP
7980
CF00
ENDCHAR
STARTCHAR Adieresis
ENCODING 128
SWIDTH 778 0
DWIDTH 13 0
BBX 14 14 -1 0
BITMAP
0CC0
0CC0
0000
0000
0180
01C0
02C0
0460
07E0
0830
1030
2018
6018
E03C
ENDCHAR
STARTCHAR Aring
ENCODING 129
SWIDTH 778 0
DWIDTH 13 0
BBX 14 14 -1 0
BITMAP
0180
0240
0240
0180
0180
01C0
02C0
0460
07E0
0830
1030
2018
6018
E03C
ENDCHAR
STARTCHAR Ccedilla
ENCODING 130
SWIDTH 709 0
DWIDTH 13 0
BBX 12 18 0 -4
BITMAP
0FE0
3030
6010
4010
C000
C000
C000
C000
C000
E000
6000
7000
3830
0FC0
0400
0600
0200
0C00
ENDCHAR
STARTCHAR Eacute
ENCODING 131
SWIDTH 611 0
DWIDTH 11 0
BBX 9 14 1 0
BITMAP
0C00
1800
3000
0000
0000
FF80
6080
6080
7C00
6000
6000
6080
6080
FF80
ENDCHAR
STARTCHAR Ntilde
ENCODING 132
SWIDTH 831 0
DWIDTH 16 0
BBX 13 14 1 0
BITMAP
0680
0B00
0000
0000
0000
F038
7810
5C10
4E10
4710
4390
41D0
40F0
E070
ENDCHAR
STARTCHAR Odieresis
ENCODING 133
SWIDTH 786 0
DWIDTH 15 0
BBX 14 14 0 0
BITMAP
0CC0
0CC0
0000
0000
0FC0
3070
6038
4018
C01C
E00C
6008
7018
3830
0FC0
ENDCHAR
STARTCHAR Udieresis
ENCODING 134
SWIDTH 778 0
DWIDTH 15 0
BBX 12 14 1 0
BITMAP
1980
1980
0000
0000
0000
F070
6020
6020
6020
6020
6020
7020
3840
1F80
ENDCHAR
STARTCHAR aacute
ENCODING 135
SWIDTH 500 0
DWIDTH 10 0
BBX 9 13 0 0
BITMAP
0C00
1800
3000
0000
7E00
4700
0300
0F00
7300
C300
C300
E700
7B80
ENDCHAR
STARTCHAR agrave
ENCODING 136
SWIDTH 500 0
DWIDTH 10 0
BBX 9 13 0 0
BITMAP
3000
1800
0C00
0000
7E00
4700
0300
0F00
7300
C300
C300
E700
7B80
ENDCHAR
STARTCHAR acircumflex
ENCODING 137
SWIDTH 500 0
DWIDTH 10 0
BBX 9 13 0 0
BITMAP
0800
1C00
3600
0000
7E00
4700
0300
0F00
7300
C300
C300
E700
7B80
ENDCHAR
STARTCHAR adieresis
ENCODING 138
SWIDTH 500 0
DWIDTH 10 0
BBX 9 13 0 0
BITMAP
6600
6600
0000
0000
7E00
4700
0300
0F00
7300
C300
C300
E700
7B80
ENDCHAR
STARTCHAR atilde
ENCODING 139
SWIDTH 500 0
DWIDTH 10 0
BBX 9 12 0 0
BITMAP
1A00
2C00
0000
7E00
4700
0300
0F00
7300
C300
C300
E700
7B80
ENDCHAR
STARTCHAR aring
ENCODING 140
SWIDTH 500 0
DWIDTH 10 0
BBX 9 14 0 0
BITMAP
1800
2400
2400
1800
0000
7E00
4700
0300
0F00
7300
C300
C300
E700
7B80
ENDCHAR
STARTCHAR ccedilla
ENCODING 141
SWIDTH 444 0
DWIDTH 9 0
BBX 8 13 0 -4
BITMAP
3E
63
40
C0
C0
C0
E0
71
3E
10
18
08
30
ENDCHAR
STARTCHAR eacute
ENCODING 142
SWIDTH 479 0
DWIDTH 10 0
BBX 9 13 0 0
BITMAP
0C00
1800
3000
0000
3E00
6300
4180
C180
FF80
C000
E000
7080
3F00
ENDCHAR
STARTCHAR egrave
ENCODING 143
SWIDTH 479 0
DWIDTH 10 0
BBX 9 13 0 0
BITMAP
3000
1800
0C00
0000
3E00
6300
4180
C180
FF80
C000
E000
7080
3F00
ENDCHAR
STARTCHAR ecircumflex
ENCODING 144
SWIDTH 479 0
DWIDTH 10 0
BBX 9 13 0 0
BITMAP
0800
1C00
3600
0000
3E00
6300
4180
C180
FF80
C000
E000
7080
3F00
ENDCHAR
STARTCHAR edieresis
ENCODING 145
SWIDTH 479 0
DWIDTH 10 0
BBX 9 13 0 0
BITMAP
6600
6600
0000
0000
3E00
6300
4180
C180
FF80
C000
E000
7080
3F00
ENDCHAR
STARTCHAR iacute
ENCODING 146
SWIDTH 287 0
DWIDTH 5 0
BBX 4 13 0 0
BITMAP
30
60
C0
00
E0
60
60
60
60
60
60
60
F0
ENDCHAR
STARTCHAR igrave
ENCODING 147
SWIDTH 287 0
DWIDTH 5 0
BBX 4 13 0 0
BITMAP
C0
60
30
00
E0
60
60
60
60
60
60
60
F0
ENDCHAR
STARTCHAR icircumflex
ENCODING 148
SWIDTH 287 0
DWIDTH 5 0
BBX 5 13 0 0
BITMAP
20
70
D8
00
E0
60
60
60
60
60
60
60
F0
ENDCHAR
STARTCHAR idieresis
ENCODING 149
SWIDTH 287 0
DWIDTH 5 0
BBX 6 13 -1 0
BITMAP
CC
CC
00
00
70
30
30
30
30
30
30
30
78
ENDCHAR
STARTCHAR ntilde
ENCODING 150
SWIDTH 582 0
DWIDTH 11 0
BBX 10 12 0 0
BITMAP
1A00
2C00
0000
E700
6B80
7180
6180
6180
6180
6180
6180
F1C0
ENDCHAR
STARTCHAR oacute
ENCODING 151
SWIDTH 546 0
DWIDTH 10 0
BBX 9 13 0 0
BITMAP
0C00
1800
3000
0000
1E00
6300
4180
C180
C180
C180
C100
6300
3C00
ENDCHAR
STARTCHAR ograve
ENCODING 152
SWIDTH 546 0
DWIDTH 10 0
BBX 9 13 0 0
BITMAP
3000
1800
0C00
0000
1E00
6300
4180
C180
C180
C180
C100
6300
3C00
ENDCHAR
STARTCHAR ocircumflex
ENCODING 153
SWIDTH 546 0
DWIDTH 10 0
BBX 9 13 0 0
BITMAP
0800
1C00
3600
0000
1E00
6300
4180
C180
C180
C180
C100
6300
3C00
ENDCHAR
STARTCHAR odieresis
ENCODING 154
SWIDTH 546 0
DWIDTH 10 0
BBX 9 13 0 0
BITMAP
6600
6600
0000
0000
1E00
6300
4180
C180
C180
C180
C100
6300
3C00
ENDCHAR
STARTCHAR otilde
ENCODING 155
SWIDTH 546 0
DWIDTH 10 0
BBX 9 12 0 0
BITMAP
1A00
2C00
0000
1E00
6300
4180
C180
C180
C180
C100
6300
3C00
ENDCHAR
STARTCHAR uacute
ENCODING 156
SWIDTH 603 0
DWIDTH 11 0
BBX 10 13 0 0
BITMAP
0600
0C00
1800
0000
E380
6180
6180
6180
6180
6180
6380
7580
39C0
ENDCHAR
STARTCHAR ugrave
ENCODING 157
SWIDTH 603 0
DWIDTH 11 0
BBX 10 13 0 0
BITMAP
1800
0C00
0600
0000
E380
6180
6180
6180
6180
6180
6380
7580
39C0
ENDCHAR
STARTCHAR ucircumflex
ENCODING 158
SWIDTH 603 0
DWIDTH 11 0
BBX 10 13 0 0
BITMAP
0800
1C00
3600
0000
E380
6180
6180
6180
6180
6180
6380
7580
39C0
ENDCHAR
STARTCHAR udieresis
ENCODING 159
SWIDTH 603 0
DWIDTH 11 0
BBX 10 13 0 0
BITMAP
3300
3300
0000
0000
E380
6180
6180
6180
6180
6180
6380
7580
39C0
ENDCHAR
STARTCHAR dagger
ENCODING 160
SWIDTH 500 0
DWIDTH 9 0
BBX 8 14 0 0
BITMAP
18
18
18
18
18
FF
18
18
18
18
18
18
18
18
ENDCHAR
STARTCHAR degree
ENCODING 161
SWIDTH 400 0
DWIDTH 7 0
BBX 5 6 1 7
BITMAP
70
F8
D8
D8
F8
70
ENDCHAR
STARTCHAR cent
ENCODING 162
SWIDTH 500 0
DWIDTH 9 0
BBX 8 13 0 -2
BITMAP
01
01
3E
67
45
C4
C8
C8
E8
71
3E
20
20
ENDCHAR
STARTCHAR sterling
ENCODING 163
SWIDTH 500 0
DWIDTH 11 0
BBX 10 14 0 0
BITMAP
0380
0CC0
0840
1800
1800
1800
1800
7F00
1800
1000
1040
2040
7FC0
CFC0
ENDCHAR
STARTCHAR section
ENCODING 164
SWIDTH 500 0
DWIDTH 9 0
BBX 8 18 0 -4
BITMAP
1E
63
C1
C1
E0
78
5E
87
83
C1
E1
7A
1E
07
03
83
C6
78
ENDCHAR
STARTCHAR bullet
ENCODING 165
SWIDTH 606 0
DWIDTH 9 0
BBX 6 6 1 4
BITMAP
78
FC
FC
FC
FC
78
ENDCHAR
STARTCHAR paragraph
ENCODING 166
SWIDTH 628 0
DWIDTH 12 0
BBX 11 18 0 -4
BITMAP
3FE0
6480
E480
E480
E480
E480
6480
3C80
0480
0480
0480
0480
0480
0480
0480
0480
0480
1FE0
ENDCHAR
STARTCHAR germandbls
ENCODING 167
SWIDTH 556 0
DWIDTH 11 0
BBX 10 14 0 0
BITMAP
1F00
3180
6080
6080
6080
6380
E600
6C00
6E00
6780
61C0
60C0
6880
EF00
ENDCHAR
STARTCHAR registered
ENCODING 168
SWIDTH 747 0
DWIDTH 16 0
BBX 15 14 0 0
BITMAP
07C0
1830
2008
4FC4
4664
8662
8642
87C2
8662
4664
4F34
2008
1830
07C0
ENDCHAR
STARTCHAR copyright
ENCODING 169
SWIDTH 747 0
DWIDTH 16 0
BBX 15 14 0 0
BITMAP
07C0
1830
2008
47C4
4C64
9802
9802
9802
9C02
4E24
47C4
2008
1830
07C0
ENDCHAR
STARTCHAR trademark
ENCODING 170
SWIDTH 979 0
DWIDTH 18 0
BBX 15 7 1 5
BITMAP
FB8E
A98C
218C
2154
2174
2124
73AE
ENDCHAR
STARTCHAR acute
ENCODING 171
SWIDTH 333 0
DWIDTH 6 0
BBX 4 3 1 10
BITMAP
30
60
C0
ENDCHAR
STARTCHAR dieresis
ENCODING 172
SWIDTH 333 0
DWIDTH 7 0
BBX 6 2 0 11
BITMAP
CC
CC
ENDCHAR
STARTCHAR notequal
ENCODING 173
SWIDTH 549 0
DWIDTH 10 0
BBX 8 9 1 0
BITMAP
0C
0C
FF
FF
18
FF
FF
30
30
ENDCHAR
STARTCHAR AE
ENCODING 174
SWIDTH 944 0
DWIDTH 17 0
BBX 17 14 -1 0
BITMAP
03FF80
00E080
016080
016000
026100
026100
047F00
046100
086100
0FE000
106000
106080
206080
F8FF80
ENDCHAR
STARTCHAR Oslash
ENCODING 175
SWIDTH 833 0
DWIDTH 15 0
BBX 15 14 0 0
BITMAP
0FC6
307C
6018
4038
C06C
C0CC
C18C
C30C
C60C
CC0C
7808
7018
7830
CFC0
ENDCHAR
STARTCHAR infinity
ENCODING 176
SWIDTH 713 0
DWIDTH 13 0
BBX 12 5 0 3
BITMAP
79E0
CF30
8610
CF30
79E0
ENDCHAR
STARTCHAR plusminus
ENCODING 177
SWIDTH 549 0
DWIDTH 10 0
BBX 8 11 1 0
BITMAP
18
18
18
FF
FF
18
18
18
00
FF
FF
ENDCHAR
STARTCHAR lessequal
ENCODING 178
SWIDTH 549 0
DWIDTH 10 0
BBX 9 12 0 0
BITMAP
0380
0F00
3C00
F000
C000
F000
3C00
0F00
0380
0000
FF80
FF80
ENDCHAR
STARTCHAR greaterequal
ENCODING 179
SWIDTH 549 0
DWIDTH 10 0
BBX 9 12 0 0
BITMAP
E000
7800
1E00
0780
0180
0780
1E00
7800
E000
0000
FF80
FF80
ENDCHAR
STARTCHAR yen
ENCODING 180
SWIDTH 500 0
DWIDTH 11 0
BBX 12 14 -1 0
BITMAP
E070
6060
3040
3080
1880
1900
0F00
3FC0
0600
3FC0
0600
0600
0600
1F80
ENDCHAR
STARTCHAR mu
ENCODING 181
SWIDTH 576 0
DWIDTH 11 0
BBX 9 13 2 -4
BITMAP
4200
C600
C600
C600
C600
C600
C680
FB80
7B00
4000
C000
C000
C000
ENDCHAR
STARTCHAR partialdiff
ENCODING 182
SWIDTH 494 0
DWIDTH 9 0
BBX 7 13 1 0
BITMAP
78
8C
06
06
06
3E
66
C6
C6
C6
C4
EC
78
ENDCHAR
STARTCHAR summation
ENCODING 183
SWIDTH 713 0
DWIDTH 13 0
BBX 12 16 0 -3
BITMAP
FFE0
E060
7020
3800
1C00
0E00
0700
0300
0600
0C00
1800
3000
6010
C030
FFF0
FFF0
ENDCHAR
STARTCHAR product
ENCODING 184
SWIDTH 823 0
DWIDTH 15 0
BBX 14 16 0 -3
BITMAP
FFFC
7878
3030
3030
3030
3030
3030
3030
3030
3030
3030
3030
3030
3030
7878
FCFC
ENDCHAR
STARTCHAR pi
ENCODING 185
SWIDTH 549 0
DWIDTH 10 0
BBX 9 9 0 0
BITMAP
7F80
FF80
9200
1200
1200
1200
3280
7380
6300
ENDCHAR
STARTCHAR integral
ENCODING 186
SWIDTH 274 0
DWIDTH 6 0
BBX 6 18 0 -5
BITMAP
1C
3C
30
30
30
30
30
30
30
30
30
30
30
30
30
30
E0
E0
ENDCHAR
STARTCHAR ordfeminine
ENCODING 187
SWIDTH 333 0
DWIDTH 7 0
BBX 6 9 0 5
BITMAP
70
98
08
78
88
D8
6C
00
FC
ENDCHAR
STARTCHAR ordmasculine
ENCODING 188
SWIDTH 333 0
DWIDTH 7 0
BBX 6 9 0 5
BITMAP
38
4C
84
84
84
C8
70
00
FC
ENDCHAR
STARTCHAR Omega
ENCODING 189
SWIDTH 768 0
DWIDTH 14 0
BBX 13 13 0 0
BITMAP
0700
18C0
3060
7070
6030
6030
6030
6030
3060
38E0
8888
F8F8
F8F8
ENDCHAR
STARTCHAR ae
ENCODING 190
SWIDTH 758 0
DWIDTH 16 0
BBX 15 9 0 0
BITMAP
7EF8
478C
0306
0F06
73FE
C300
C380
E5C2
78FC
ENDCHAR
STARTCHAR oslash
ENCODING 191
SWIDTH 556 0
DWIDTH 10 0
BBX 10 9 -1 0
BITMAP
0FC0
3180
23C0
66C0
6CC0
78C0
7080
7180
DE00
ENDCHAR
STARTCHAR questiondown
ENCODING 192
SWIDTH 444 0
DWIDTH 8 0
BBX 7 14 0 -5
BITMAP
0C
0C
00
08
0C
18
30
60
C0
C0
C0
E2
7E
38
ENDCHAR
STARTCHAR exclamdown
ENCODING 193
SWIDTH 278 0
DWIDTH 5 0
BBX 2 14 1 -5
BITMAP
C0
C0
00
00
C0
C0
C0
C0
C0
C0
C0
C0
C0
C0
ENDCHAR
STARTCHAR logicalnot
ENCODING 194
SWIDTH 606 0
DWIDTH 10 0
BBX 9 5 0 3
BITMAP
FF80
0080
0080
0080
0080
ENDCHAR
STARTCHAR radical
ENCODING 195
SWIDTH 549 0
DWIDTH 10 0
BBX 9 13 0 0
BITMAP
0080
0080
0080
3080
7100
D900
1900
1900
0D00
0D00
0600
0600
0600
ENDCHAR
STARTCHAR florin
ENCODING 196
SWIDTH 500 0
DWIDTH 7 0
BBX 9 19 -2 -5
BITMAP
0180
0380
0400
0C00
0C00
0C00
1F00
0C00
0C00
0C00
1800
1800
1800
1800
1800
1000
1000
E000
C000
ENDCHAR
STARTCHAR approxequal
ENCODING 197
SWIDTH 549 0
DWIDTH 10 0
BBX 8 7 1 2
BITMAP
73
FF
CE
00
73
FF
CE
ENDCHAR
STARTCHAR Delta
ENCODING 198
SWIDTH 612 0
DWIDTH 11 0
BBX 11 13 0 0
BITMAP
0400
0600
0E00
0B00
1300
1300
1180
2180
21C0
40C0
40C0
8060
FFE0
ENDCHAR
STARTCHAR guillemotleft
ENCODING 199
SWIDTH 500 0
DWIDTH 10 0
BBX 9 7 0 2
BITMAP
1980
3300
6600
CC00
6600
3300
1980
ENDCHAR
STARTCHAR guillemotright
ENCODING 200
SWIDTH 500 0
DWIDTH 10 0
BBX 9 7 0 2
BITMAP
CC00
6600
3300
1980
3300
6600
CC00
ENDCHAR
STARTCHAR ellipsis
ENCODING 201
SWIDTH 1000 0
DWIDTH 15 0
BBX 12 2 1 0
BITMAP
C630
C630
ENDCHAR
STARTCHAR nbspace
ENCODING 202
SWIDTH 250 0
DWIDTH 5 0
BBX 1 0 0 -5
BITMAP
ENDCHAR
STARTCHAR Agrave
ENCODING 203
SWIDTH 778 0
DWIDTH 13 0
BBX 14 14 -1 0
BITMAP
0300
0180
00C0
0000
0180
01C0
02C0
0460
07E0
0830
1030
2018
6018
E03C
ENDCHAR
STARTCHAR Atilde
ENCODING 204
SWIDTH 778 0
DWIDTH 13 0
BBX 14 14 -1 0
BITMAP
01A0
02C0
0000
0000
0180
01C0
02C0
0460
07E0
0830
1030
2018
6018
E03C
ENDCHAR
STARTCHAR Otilde
ENCODING 205
SWIDTH 786 0
DWIDTH 15 0
BBX 14 14 0 0
BITMAP
0680
0B00
0000
0000
0FC0
3070
6038
4018
C01C
E00C
6008
7018
3830
0FC0
ENDCHAR
STARTCHAR OE
ENCODING 206
SWIDTH 998 0
DWIDTH 19 0
BBX 18 14 0 0
BITMAP
0FFFC0
307040
603040
403000
C03080
C03080
C03F80
C03080
C03080
E03000
603000
703040
387040
0FBFC0
ENDCHAR
STARTCHAR oe
ENCODING 207
SWIDTH 827 0
DWIDTH 17 0
BBX 16 9 0 0
BITMAP
1E7C
63C6
4183
C183
C1FF
C180
C1C0
63E1
3C7E
ENDCHAR
STARTCHAR endash
ENCODING 208
SWIDTH 500 0
DWIDTH 10 0
BBX 9 1 0 5
BITMAP
FF80
ENDCHAR
STARTCHAR emdash
ENCODING 209
SWIDTH 1000 0
DWIDTH 19 0
BBX 18 1 0 5
BITMAP
FFFFC0
ENDCHAR
STARTCHAR quotedblleft
ENCODING 210
SWIDTH 500 0
DWIDTH 9 0
BBX 8 5 0 9
BITMAP
11
22
66
CC
CC
ENDCHAR
STARTCHAR quotedblright
ENCODING 211
SWIDTH 500 0
DWIDTH 9 0
BBX 8 5 0 9
BITMAP
33
33
66
44
88
ENDCHAR
STARTCHAR quoteleft
ENCODING 212
SWIDTH 278 0
DWIDTH 5 0
BBX 4 5 0 9
BITMAP
10
20
60
C0
C0
ENDCHAR
STARTCHAR quoteright
ENCODING 213
SWIDTH 278 0
DWIDTH 5 0
BBX 4 5 0 9
BITMAP
30
30
60
40
80
ENDCHAR
STARTCHAR divide
ENCODING 214
SWIDTH 549 0
DWIDTH 10 0
BBX 8 8 1 1
BITMAP
18
18
00
FF
FF
00
18
18
ENDCHAR
STARTCHAR lozenge
ENCODING 215
SWIDTH 494 0
DWIDTH 9 0
BBX 9 13 0 0
BITMAP
0800
1C00
3600
3600
6300
6300
C180
6300
6300
3600
3600
1C00
0800
ENDCHAR
STARTCHAR ydieresis
ENCODING 216
SWIDTH 556 0
DWIDTH 9 0
BBX 10 18 -1 -5
BITMAP
3300
3300
0000
0000
F1C0
6080
6080
3100
3100
1A00
1A00
0C00
0C00
0800
0800
1000
E000
C000
ENDCHAR
STARTCHAR Ydieresis
ENCODING 217
SWIDTH 667 0
DWIDTH 11 0
BBX 12 14 -1 0
BITMAP
1980
1980
0000
0000
0000
E070
6060
30C0
1880
0D00
0700
0600
0600
1F80
ENDCHAR
STARTCHAR fraction
ENCODING 218
SWIDTH 167 0
DWIDTH 3 0
BBX 7 15 -3 -1
BITMAP
02
02
06
04
0C
08
18
10
30
20
60
40
C0
80
80
ENDCHAR
STARTCHAR currency
ENCODING 219
SWIDTH 606 0
DWIDTH 10 0
BBX 9 9 0 2
BITMAP
9C80
FF80
6300
C180
C180
C180
6300
FF80
9C80
ENDCHAR
STARTCHAR guilsinglleft
ENCODING 220
SWIDTH 331 0
DWIDTH 6 0
BBX 5 7 0 2
BITMAP
18
30
60
C0
60
30
18
ENDCHAR
STARTCHAR guilsinglright
ENCODING 221
SWIDTH 331 0
DWIDTH 6 0
BBX 5 7 0 2
BITMAP
C0
60
30
18
30
60
C0
ENDCHAR
STARTCHAR fi
ENCODING 222
SWIDTH 605 0
DWIDTH 11 0
BBX 10 14 0 0
BITMAP
1C00
2580
6180
6000
6000
FB80
6180
6180
6180
6180
6180
6180
6180
F3C0
ENDCHAR
STARTCHAR fl
ENCODING 223
SWIDTH 608 0
DWIDTH 11 0
BBX 10 14 0 0
BITMAP
1F80
2580
6180
6180
6180
F980
6180
6180
6180
6180
6180
6180
6180
F3C0
ENDCHAR
STARTCHAR daggerdbl
ENCODING 224
SWIDTH 500 0
DWIDTH 9 0
BBX 8 18 0 -4
BITMAP
18
18
18
18
18
FF
18
18
18
18
18
18
FF
18
18
18
18
18
ENDCHAR
STARTCHAR periodcentered
ENCODING 225
SWIDTH 250 0
DWIDTH 5 0
BBX 2 2 1 5
BITMAP
C0
C0
ENDCHAR
STARTCHAR quotesinglbase
ENCODING 226
SWIDTH 278 0
DWIDTH 4 0
BBX 4 5 -1 -3
BITMAP
30
30
60
40
80
ENDCHAR
STARTCHAR quotedblbase
ENCODING 227
SWIDTH 500 0
DWIDTH 8 0
BBX 8 5 -1 -3
BITMAP
33
33
66
44
88
ENDCHAR
STARTCHAR perthousand
ENCODING 228
SWIDTH 1144 0
DWIDTH 21 0
BBX 20 14 0 0
BITMAP
18C000
674000
648000
C48000
C50000
C90000
CA3060
72C990
04C990
058B10
098B10
099320
119320
10E1C0
ENDCHAR
STARTCHAR Acircumflex
ENCODING 229
SWIDTH 778 0
DWIDTH 13 0
BBX 14 14 -1 0
BITMAP
0100
0380
06C0
0000
0180
01C0
02C0
0460
07E0
0830
1030
2018
6018
E03C
ENDCHAR
STARTCHAR Ecircumflex
ENCODING 230
SWIDTH 611 0
DWIDTH 11 0
BBX 9 14 1 0
BITMAP
0800
1C00
3600
0000
0000
FF80
6080
6080
7C00
6000
6000
6080
6080
FF80
ENDCHAR
STARTCHAR Aacute
ENCODING 231
SWIDTH 778 0
DWIDTH 13 0
BBX 14 14 -1 0
BITMAP
00C0
0180
0300
0000
0180
01C0
02C0
0460
07E0
0830
1030
2018
6018
E03C
ENDCHAR
STARTCHAR Edieresis
ENCODING 232
SWIDTH 611 0
DWIDTH 11 0
BBX 9 14 1 0
BITMAP
6600
6600
0000
0000
0000
FF80
6080
6080
7C00
6000
6000
6080
6080
FF80
ENDCHAR
STARTCHAR Egrave
ENCODING 233
SWIDTH 611 0
DWIDTH 11 0
BBX 9 14 1 0
BITMAP
3000
1800
0C00
0000
0000
FF80
6080
6080
7C00
6000
6000
6080
6080
FF80
ENDCHAR
STARTCHAR Iacute
ENCODING 234
SWIDTH 337 0
DWIDTH 7 0
BBX 4 14 1 0
BITMAP
30
60
C0
00
00
F0
60
60
60
60
60
60
60
F0
ENDCHAR
STARTCHAR Icircumflex
ENCODING 235
SWIDTH 337 0
DWIDTH 7 0
BBX 5 14 1 0
BITMAP
20
70
D8
00
00
F0
60
60
60
60
60
60
60
F0
ENDCHAR
STARTCHAR Idieresis
ENCODING 236
SWIDTH 337 0
DWIDTH 7 0
BBX 6 14 0 0
BITMAP
CC
CC
00
00
00
78
30
30
30
30
30
30
30
78
ENDCHAR
STARTCHAR Igrave
ENCODING 237
SWIDTH 337 0
DWIDTH 7 0
BBX 4 14 1 0
BITMAP
C0
60
30
00
00
F0
60
60
60
60
60
60
60
F0
ENDCHAR
STARTCHAR Oacute
ENCODING 238
SWIDTH 786 0
DWIDTH 15 0
BBX 14 14 0 0
BITMAP
0180
0300
0600
0000
0FC0
3070
6038
4018
C01C
E00C
6008
7018
3830
0FC0
ENDCHAR
STARTCHAR Ocircumflex
ENCODING 239
SWIDTH 786 0
DWIDTH 15 0
BBX 14 14 0 0
BITMAP
0100
0380
06C0
0000
0FC0
3070
6038
4018
C01C
E00C
6008
7018
3830
0FC0
ENDCHAR
STARTCHAR apple
ENCODING 240
SWIDTH 790 0
DWIDTH 14 0
BBX 12 13 1 0
BITMAP
0180
0380
0300
3AE0
7FF0
7FE0
FFC0
FFC0
FFC0
7FE0
7FF0
3FE0
1DC0
ENDCHAR
STARTCHAR Ograve
ENCODING 241
SWIDTH 786 0
DWIDTH 15 0
BBX 14 14 0 0
BITMAP
0600
0300
0180
0000
0FC0
3070
6038
4018
C01C
E00C
6008
7018
3830
0FC0
ENDCHAR
STARTCHAR Uacute
ENCODING 242
SWIDTH 778 0
DWIDTH 15 0
BBX 12 14 1 0
BITMAP
0300
0600
0C00
0000
0000
F070
6020
6020
6020
6020
6020
7020
3840
1F80
ENDCHAR
STARTCHAR Ucircumflex
ENCODING 243
SWIDTH 778 0
DWIDTH 15 0
BBX 12 14 1 0
BITMAP
0200
0700
0D80
0000
0000
F070
6020
6020
6020
6020
6020
7020
3840
1F80
ENDCHAR
STARTCHAR Ugrave
ENCODING 244
SWIDTH 778 0
DWIDTH 15 0
BBX 12 14 1 0
BITMAP
0C00
0600
0300
0000
0000
F070
6020
6020
6020
6020
6020
7020
3840
1F80
ENDCHAR
STARTCHAR dotlessi
ENCODING 245
SWIDTH 287 0
DWIDTH 5 0
BBX 4 9 0 0
BITMAP
E0
60
60
60
60
60
60
60
F0
ENDCHAR
STARTCHAR circumflex
ENCODING 246
SWIDTH 333 0
DWIDTH 7 0
BBX 5 3 1 10
BITMAP
20
70
D8
ENDCHAR
STARTCHAR tilde
ENCODING 247
SWIDTH 333 0
DWIDTH 7 0
BBX 5 2 0 10
BITMAP
68
B0
ENDCHAR
STARTCHAR macron
ENCODING 248
SWIDTH 333 0
DWIDTH 7 0
BBX 6 1 0 10
BITMAP
FC
ENDCHAR
STARTCHAR breve
ENCODING 249
SWIDTH 333 0
DWIDTH 6 0
BBX 5 3 0 10
BITMAP
88
D8
70
ENDCHAR
STARTCHAR dotaccent
ENCODING 250
SWIDTH 250 0
DWIDTH 5 0
BBX 2 2 1 11
BITMAP
C0
C0
ENDCHAR
STARTCHAR ring
ENCODING 251
SWIDTH 333 0
DWIDTH 6 0
BBX 4 4 1 10
BITMAP
60
90
90
60
ENDCHAR
STARTCHAR cedilla
ENCODING 252
SWIDTH 333 0
DWIDTH 6 0
BBX 3 4 2 -4
BITMAP
40
60
20
C0
ENDCHAR
STARTCHAR hungarumlaut
ENCODING 253
SWIDTH 380 0
DWIDTH 9 0
BBX 8 3 0 10
BITMAP
33
66
CC
ENDCHAR
STARTCHAR ogonek
ENCODING 254
SWIDTH 313 0
DWIDTH 6 0
BBX 5 4 0 -4
BITMAP
20
40
48
70
ENDCHAR
STARTCHAR caron
ENCODING 255
SWIDTH 333 0
DWIDTH 8 0
BBX 5 3 1 10
BITMAP
D8
70
20
ENDCHAR
ENDFONT
